<mxfile host="app.diagrams.net" modified="2021-01-13T09:43:25.389Z" agent="5.0 (Windows NT 10.0; Win64; x64) AppleWebKit/537.36 (KHTML, like Gecko) Chrome/87.0.4280.141 Safari/537.36" etag="D-jZBCeSQDOFg5eWG_yV" version="14.1.9" type="github">
  <diagram id="Skx42vSPVDdps3SAeeb1" name="Page-1">
    <mxGraphModel dx="920" dy="528" grid="1" gridSize="10" guides="1" tooltips="1" connect="1" arrows="1" fold="1" page="1" pageScale="1" pageWidth="827" pageHeight="1169" math="0" shadow="0">
      <root>
        <mxCell id="0" />
        <mxCell id="1" parent="0" />
        <mxCell id="J7z8JENhS1iehbA8i5uw-1" value="System e-comme" style="shape=rect;html=1;verticalAlign=top;fontStyle=1;whiteSpace=wrap;align=center;" parent="1" vertex="1">
          <mxGeometry x="130" y="20" width="610" height="1030" as="geometry" />
        </mxCell>
        <mxCell id="J7z8JENhS1iehbA8i5uw-2" value="&lt;span style=&quot;font-family: &amp;#34;nunito sans&amp;#34; , sans-serif ; background-color: rgb(255 , 255 , 255)&quot;&gt;&lt;font style=&quot;font-size: 14px&quot;&gt;Internaute&lt;/font&gt;&lt;/span&gt;" style="shape=umlActor;html=1;verticalLabelPosition=bottom;verticalAlign=top;align=center;" parent="1" vertex="1">
          <mxGeometry x="30" y="220" width="30" height="60" as="geometry" />
        </mxCell>
        <mxCell id="J7z8JENhS1iehbA8i5uw-3" value="&lt;p style=&quot;margin: 0px ; margin-top: 4px ; text-align: center&quot;&gt;&amp;lt;&amp;lt;actor&amp;gt;&amp;gt;&lt;br&gt;&lt;b&gt;Système bancaire&lt;/b&gt;&lt;/p&gt;" style="shape=rect;html=1;overflow=fill;html=1;whiteSpace=wrap;align=center;" parent="1" vertex="1">
          <mxGeometry x="20" y="840" width="80" height="100" as="geometry" />
        </mxCell>
        <mxCell id="J7z8JENhS1iehbA8i5uw-5" value="Créer un compte&amp;nbsp;" style="ellipse;whiteSpace=wrap;html=1;" parent="1" vertex="1">
          <mxGeometry x="260" y="70" width="140" height="40" as="geometry" />
        </mxCell>
        <mxCell id="J7z8JENhS1iehbA8i5uw-6" value="Cherche un produit&amp;nbsp;" style="ellipse;whiteSpace=wrap;html=1;" parent="1" vertex="1">
          <mxGeometry x="250" y="130" width="140" height="45" as="geometry" />
        </mxCell>
        <mxCell id="J7z8JENhS1iehbA8i5uw-7" value="Visualiser la fiche d&#39;un produit&amp;nbsp;" style="ellipse;whiteSpace=wrap;html=1;" parent="1" vertex="1">
          <mxGeometry x="290" y="180" width="140" height="50" as="geometry" />
        </mxCell>
        <mxCell id="J7z8JENhS1iehbA8i5uw-8" value="Ajouter un produit au panier" style="ellipse;whiteSpace=wrap;html=1;" parent="1" vertex="1">
          <mxGeometry x="280" y="250" width="140" height="50" as="geometry" />
        </mxCell>
        <mxCell id="J7z8JENhS1iehbA8i5uw-9" value="Valider un panier" style="ellipse;whiteSpace=wrap;html=1;" parent="1" vertex="1">
          <mxGeometry x="260" y="370" width="140" height="50" as="geometry" />
        </mxCell>
        <mxCell id="J7z8JENhS1iehbA8i5uw-10" value="&lt;span style=&quot;font-family: &amp;#34;nunito sans&amp;#34; , sans-serif ; background-color: rgb(255 , 255 , 255)&quot;&gt;&lt;font style=&quot;font-size: 13px&quot;&gt;Saisir ses coordonnées&lt;/font&gt;&lt;/span&gt;" style="ellipse;whiteSpace=wrap;html=1;" parent="1" vertex="1">
          <mxGeometry x="210" y="470" width="140" height="50" as="geometry" />
        </mxCell>
        <mxCell id="J7z8JENhS1iehbA8i5uw-11" value="Choisir un mode de paiement&amp;nbsp;" style="ellipse;whiteSpace=wrap;html=1;" parent="1" vertex="1">
          <mxGeometry x="170" y="560" width="140" height="50" as="geometry" />
        </mxCell>
        <mxCell id="J7z8JENhS1iehbA8i5uw-12" value="" style="edgeStyle=none;html=1;endArrow=none;verticalAlign=bottom;exitX=0.5;exitY=0.5;exitDx=0;exitDy=0;exitPerimeter=0;entryX=0;entryY=0.5;entryDx=0;entryDy=0;" parent="1" source="J7z8JENhS1iehbA8i5uw-2" target="J7z8JENhS1iehbA8i5uw-5" edge="1">
          <mxGeometry width="160" relative="1" as="geometry">
            <mxPoint x="30" y="280" as="sourcePoint" />
            <mxPoint x="210" y="136" as="targetPoint" />
          </mxGeometry>
        </mxCell>
        <mxCell id="J7z8JENhS1iehbA8i5uw-17" value="&lt;span style=&quot;font-family: &amp;#34;nunito sans&amp;#34; , sans-serif ; font-size: 16px ; background-color: rgb(255 , 255 , 255)&quot;&gt;&amp;nbsp;S’authentifier&lt;/span&gt;" style="ellipse;whiteSpace=wrap;html=1;" parent="1" vertex="1">
          <mxGeometry x="355" y="450" width="140" height="40" as="geometry" />
        </mxCell>
        <mxCell id="J7z8JENhS1iehbA8i5uw-18" value="" style="edgeStyle=none;html=1;endArrow=none;verticalAlign=bottom;exitX=0.5;exitY=0.5;exitDx=0;exitDy=0;exitPerimeter=0;entryX=0;entryY=0.5;entryDx=0;entryDy=0;" parent="1" source="J7z8JENhS1iehbA8i5uw-2" target="J7z8JENhS1iehbA8i5uw-6" edge="1">
          <mxGeometry width="160" relative="1" as="geometry">
            <mxPoint x="30" y="280" as="sourcePoint" />
            <mxPoint x="220" y="200" as="targetPoint" />
          </mxGeometry>
        </mxCell>
        <mxCell id="J7z8JENhS1iehbA8i5uw-20" value="" style="edgeStyle=none;html=1;endArrow=none;verticalAlign=bottom;entryX=0;entryY=0.5;entryDx=0;entryDy=0;exitX=0.5;exitY=0.5;exitDx=0;exitDy=0;exitPerimeter=0;" parent="1" source="J7z8JENhS1iehbA8i5uw-2" target="J7z8JENhS1iehbA8i5uw-7" edge="1">
          <mxGeometry width="160" relative="1" as="geometry">
            <mxPoint x="80" y="219" as="sourcePoint" />
            <mxPoint x="240" y="219" as="targetPoint" />
          </mxGeometry>
        </mxCell>
        <mxCell id="J7z8JENhS1iehbA8i5uw-21" value="" style="edgeStyle=none;html=1;endArrow=none;verticalAlign=bottom;exitX=0.683;exitY=0.542;exitDx=0;exitDy=0;exitPerimeter=0;entryX=0;entryY=0.5;entryDx=0;entryDy=0;" parent="1" source="J7z8JENhS1iehbA8i5uw-2" target="J7z8JENhS1iehbA8i5uw-9" edge="1">
          <mxGeometry width="160" relative="1" as="geometry">
            <mxPoint x="60" y="260" as="sourcePoint" />
            <mxPoint x="180" y="361" as="targetPoint" />
          </mxGeometry>
        </mxCell>
        <mxCell id="J7z8JENhS1iehbA8i5uw-22" value="" style="edgeStyle=none;html=1;endArrow=none;verticalAlign=bottom;entryX=0;entryY=0.5;entryDx=0;entryDy=0;exitX=0.5;exitY=0.5;exitDx=0;exitDy=0;exitPerimeter=0;" parent="1" source="J7z8JENhS1iehbA8i5uw-2" target="J7z8JENhS1iehbA8i5uw-10" edge="1">
          <mxGeometry width="160" relative="1" as="geometry">
            <mxPoint x="40" y="280" as="sourcePoint" />
            <mxPoint x="190" y="430" as="targetPoint" />
          </mxGeometry>
        </mxCell>
        <mxCell id="J7z8JENhS1iehbA8i5uw-23" value="" style="edgeStyle=none;html=1;endArrow=none;verticalAlign=bottom;exitX=0.5;exitY=0.5;exitDx=0;exitDy=0;exitPerimeter=0;entryX=0;entryY=0.5;entryDx=0;entryDy=0;" parent="1" source="J7z8JENhS1iehbA8i5uw-2" target="J7z8JENhS1iehbA8i5uw-8" edge="1">
          <mxGeometry width="160" relative="1" as="geometry">
            <mxPoint x="50" y="260" as="sourcePoint" />
            <mxPoint x="190" y="485" as="targetPoint" />
          </mxGeometry>
        </mxCell>
        <mxCell id="J7z8JENhS1iehbA8i5uw-24" value="" style="edgeStyle=none;html=1;endArrow=none;verticalAlign=bottom;entryX=0;entryY=0.5;entryDx=0;entryDy=0;exitX=0.5;exitY=0.5;exitDx=0;exitDy=0;exitPerimeter=0;" parent="1" source="J7z8JENhS1iehbA8i5uw-2" target="J7z8JENhS1iehbA8i5uw-11" edge="1">
          <mxGeometry width="160" relative="1" as="geometry">
            <mxPoint x="40" y="280" as="sourcePoint" />
            <mxPoint x="191" y="560.5" as="targetPoint" />
          </mxGeometry>
        </mxCell>
        <mxCell id="J7z8JENhS1iehbA8i5uw-25" value="Carte Bancaire" style="ellipse;whiteSpace=wrap;html=1;" parent="1" vertex="1">
          <mxGeometry x="215" y="740" width="140" height="50" as="geometry" />
        </mxCell>
        <mxCell id="J7z8JENhS1iehbA8i5uw-27" value="Livraison&amp;nbsp;" style="ellipse;whiteSpace=wrap;html=1;" parent="1" vertex="1">
          <mxGeometry x="140" y="660" width="140" height="50" as="geometry" />
        </mxCell>
        <mxCell id="J7z8JENhS1iehbA8i5uw-34" value="&lt;span style=&quot;font-family: &amp;#34;nunito sans&amp;#34; , sans-serif ; background-color: rgb(255 , 255 , 255)&quot;&gt;&lt;font style=&quot;font-size: 13px&quot;&gt;Saisir les informations de la carte bancaire&lt;/font&gt;&lt;/span&gt;" style="ellipse;whiteSpace=wrap;html=1;" parent="1" vertex="1">
          <mxGeometry x="150" y="950" width="140" height="60" as="geometry" />
        </mxCell>
        <mxCell id="J7z8JENhS1iehbA8i5uw-36" value="&amp;lt;&amp;lt;include&amp;gt;&amp;gt;" style="edgeStyle=none;html=1;endArrow=open;verticalAlign=bottom;dashed=1;labelBackgroundColor=none;exitX=0.5;exitY=1;exitDx=0;exitDy=0;entryX=1;entryY=0;entryDx=0;entryDy=0;" parent="1" source="J7z8JENhS1iehbA8i5uw-25" target="J7z8JENhS1iehbA8i5uw-34" edge="1">
          <mxGeometry width="160" relative="1" as="geometry">
            <mxPoint x="340" y="470" as="sourcePoint" />
            <mxPoint x="320" y="710" as="targetPoint" />
          </mxGeometry>
        </mxCell>
        <mxCell id="J7z8JENhS1iehbA8i5uw-38" value="Agent de vente" style="shape=umlActor;html=1;verticalLabelPosition=bottom;verticalAlign=top;align=center;" parent="1" vertex="1">
          <mxGeometry x="770" y="200" width="30" height="60" as="geometry" />
        </mxCell>
        <mxCell id="J7z8JENhS1iehbA8i5uw-39" value="&lt;span style=&quot;font-family: &amp;#34;nunito sans&amp;#34; , sans-serif ; background-color: rgb(255 , 255 , 255)&quot;&gt;&lt;font style=&quot;font-size: 13px&quot;&gt;Gérer les produits&lt;/font&gt;&lt;/span&gt;" style="ellipse;whiteSpace=wrap;html=1;" parent="1" vertex="1">
          <mxGeometry x="580" y="280" width="140" height="50" as="geometry" />
        </mxCell>
        <mxCell id="J7z8JENhS1iehbA8i5uw-40" value="&lt;span style=&quot;font-family: &amp;#34;nunito sans&amp;#34; , sans-serif ; background-color: rgb(255 , 255 , 255)&quot;&gt;&lt;font style=&quot;font-size: 13px&quot;&gt;Activer des notifications&lt;/font&gt;&lt;/span&gt;" style="ellipse;whiteSpace=wrap;html=1;" parent="1" vertex="1">
          <mxGeometry x="550" y="200" width="140" height="60" as="geometry" />
        </mxCell>
        <mxCell id="J7z8JENhS1iehbA8i5uw-41" value="" style="edgeStyle=none;html=1;endArrow=none;verticalAlign=bottom;entryX=1;entryY=0.5;entryDx=0;entryDy=0;exitX=0.5;exitY=0.5;exitDx=0;exitDy=0;exitPerimeter=0;" parent="1" source="J7z8JENhS1iehbA8i5uw-38" target="J7z8JENhS1iehbA8i5uw-39" edge="1">
          <mxGeometry width="160" relative="1" as="geometry">
            <mxPoint x="40" y="720" as="sourcePoint" />
            <mxPoint x="200" y="720" as="targetPoint" />
          </mxGeometry>
        </mxCell>
        <mxCell id="J7z8JENhS1iehbA8i5uw-42" value="" style="edgeStyle=none;html=1;endArrow=none;verticalAlign=bottom;entryX=1;entryY=0.5;entryDx=0;entryDy=0;exitX=0.5;exitY=0.5;exitDx=0;exitDy=0;exitPerimeter=0;" parent="1" source="J7z8JENhS1iehbA8i5uw-38" target="J7z8JENhS1iehbA8i5uw-40" edge="1">
          <mxGeometry width="160" relative="1" as="geometry">
            <mxPoint x="850" y="230" as="sourcePoint" />
            <mxPoint x="230" y="760" as="targetPoint" />
          </mxGeometry>
        </mxCell>
        <mxCell id="J7z8JENhS1iehbA8i5uw-43" value="Responsable de rayon&amp;nbsp;" style="shape=umlActor;html=1;verticalLabelPosition=bottom;verticalAlign=top;align=center;" parent="1" vertex="1">
          <mxGeometry x="410" y="1080" width="30" height="60" as="geometry" />
        </mxCell>
        <mxCell id="J7z8JENhS1iehbA8i5uw-45" value="&lt;span style=&quot;font-family: &amp;#34;nunito sans&amp;#34; , sans-serif ; background-color: rgb(255 , 255 , 255)&quot;&gt;&lt;font style=&quot;font-size: 13px&quot;&gt;Visualiser les états de ventes de son rayon,&lt;/font&gt;&lt;/span&gt;" style="ellipse;whiteSpace=wrap;html=1;" parent="1" vertex="1">
          <mxGeometry x="300" y="870" width="140" height="65" as="geometry" />
        </mxCell>
        <mxCell id="J7z8JENhS1iehbA8i5uw-46" value="&lt;span style=&quot;font-family: &amp;#34;nunito sans&amp;#34; , sans-serif ; background-color: rgb(255 , 255 , 255)&quot;&gt;&lt;font style=&quot;font-size: 13px&quot;&gt;Activer des notifications pour savoir les produits&lt;/font&gt;&lt;/span&gt;" style="ellipse;whiteSpace=wrap;html=1;" parent="1" vertex="1">
          <mxGeometry x="510" y="930" width="160" height="60" as="geometry" />
        </mxCell>
        <mxCell id="J7z8JENhS1iehbA8i5uw-47" value="&lt;span style=&quot;font-family: &amp;#34;nunito sans&amp;#34; , sans-serif ; background-color: rgb(255 , 255 , 255)&quot;&gt;&lt;font style=&quot;font-size: 13px&quot;&gt;directeur de&lt;br&gt;&amp;nbsp;plateforme&lt;/font&gt;&lt;/span&gt;" style="shape=umlActor;html=1;verticalLabelPosition=bottom;verticalAlign=top;align=center;" parent="1" vertex="1">
          <mxGeometry x="770" y="740" width="30" height="60" as="geometry" />
        </mxCell>
        <mxCell id="J7z8JENhS1iehbA8i5uw-48" value="&lt;span style=&quot;font-family: &amp;#34;nunito sans&amp;#34; , sans-serif ; background-color: rgb(255 , 255 , 255)&quot;&gt;&lt;font style=&quot;font-size: 13px&quot;&gt;Visualiser les états de vente&amp;nbsp;&lt;/font&gt;&lt;/span&gt;" style="ellipse;whiteSpace=wrap;html=1;" parent="1" vertex="1">
          <mxGeometry x="590" y="680" width="140" height="60" as="geometry" />
        </mxCell>
        <mxCell id="J7z8JENhS1iehbA8i5uw-49" value="" style="edgeStyle=none;html=1;endArrow=none;verticalAlign=bottom;exitX=1;exitY=0.5;exitDx=0;exitDy=0;entryX=0.5;entryY=0.717;entryDx=0;entryDy=0;entryPerimeter=0;" parent="1" source="J7z8JENhS1iehbA8i5uw-48" target="J7z8JENhS1iehbA8i5uw-47" edge="1">
          <mxGeometry width="160" relative="1" as="geometry">
            <mxPoint x="720" y="470" as="sourcePoint" />
            <mxPoint x="880" y="470" as="targetPoint" />
          </mxGeometry>
        </mxCell>
        <mxCell id="J7z8JENhS1iehbA8i5uw-51" value="" style="edgeStyle=none;html=1;endArrow=none;verticalAlign=bottom;exitX=0.5;exitY=0.5;exitDx=0;exitDy=0;exitPerimeter=0;entryX=0.343;entryY=0.938;entryDx=0;entryDy=0;entryPerimeter=0;" parent="1" source="J7z8JENhS1iehbA8i5uw-43" target="J7z8JENhS1iehbA8i5uw-45" edge="1">
          <mxGeometry width="160" relative="1" as="geometry">
            <mxPoint x="50" y="900" as="sourcePoint" />
            <mxPoint x="550" y="890" as="targetPoint" />
          </mxGeometry>
        </mxCell>
        <mxCell id="J7z8JENhS1iehbA8i5uw-55" value="&lt;span style=&quot;font-family: &amp;#34;nunito sans&amp;#34; , sans-serif ; background-color: rgb(255 , 255 , 255)&quot;&gt;&lt;font style=&quot;font-size: 13px&quot;&gt;Activer la réception des notifications afférentes&lt;/font&gt;&lt;/span&gt;" style="ellipse;whiteSpace=wrap;html=1;" parent="1" vertex="1">
          <mxGeometry x="570" y="780" width="140" height="70" as="geometry" />
        </mxCell>
        <mxCell id="J7z8JENhS1iehbA8i5uw-56" value="" style="edgeStyle=none;html=1;endArrow=none;verticalAlign=bottom;entryX=0.367;entryY=0.683;entryDx=0;entryDy=0;entryPerimeter=0;exitX=1;exitY=0;exitDx=0;exitDy=0;" parent="1" source="J7z8JENhS1iehbA8i5uw-55" target="J7z8JENhS1iehbA8i5uw-47" edge="1">
          <mxGeometry width="160" relative="1" as="geometry">
            <mxPoint x="620" y="750" as="sourcePoint" />
            <mxPoint x="780" y="750" as="targetPoint" />
          </mxGeometry>
        </mxCell>
        <mxCell id="J7z8JENhS1iehbA8i5uw-58" value="Administrateur &lt;br&gt;du site" style="shape=umlActor;html=1;verticalLabelPosition=bottom;verticalAlign=top;align=center;" parent="1" vertex="1">
          <mxGeometry x="770" y="430" width="30" height="60" as="geometry" />
        </mxCell>
        <mxCell id="J7z8JENhS1iehbA8i5uw-59" value="Livreur&amp;nbsp;" style="shape=umlActor;html=1;verticalLabelPosition=bottom;verticalAlign=top;align=center;" parent="1" vertex="1">
          <mxGeometry x="30" y="520" width="30" height="60" as="geometry" />
        </mxCell>
        <mxCell id="J7z8JENhS1iehbA8i5uw-60" value="" style="edgeStyle=none;html=1;endArrow=none;verticalAlign=bottom;entryX=0.667;entryY=0.733;entryDx=0;entryDy=0;entryPerimeter=0;exitX=0.107;exitY=0.3;exitDx=0;exitDy=0;exitPerimeter=0;" parent="1" source="J7z8JENhS1iehbA8i5uw-27" target="J7z8JENhS1iehbA8i5uw-59" edge="1">
          <mxGeometry width="160" relative="1" as="geometry">
            <mxPoint x="170" y="630" as="sourcePoint" />
            <mxPoint x="680" y="550" as="targetPoint" />
          </mxGeometry>
        </mxCell>
        <mxCell id="J7z8JENhS1iehbA8i5uw-61" value="&lt;span style=&quot;font-family: &amp;#34;nunito sans&amp;#34; , sans-serif ; font-size: 13px ; background-color: rgb(255 , 255 , 255)&quot;&gt;Gérer les comptes utilisateurs&lt;/span&gt;" style="ellipse;whiteSpace=wrap;html=1;" parent="1" vertex="1">
          <mxGeometry x="570" y="450" width="140" height="60" as="geometry" />
        </mxCell>
        <mxCell id="J7z8JENhS1iehbA8i5uw-62" value="" style="edgeStyle=none;html=1;endArrow=none;verticalAlign=bottom;entryX=0.5;entryY=0.5;entryDx=0;entryDy=0;entryPerimeter=0;" parent="1" source="J7z8JENhS1iehbA8i5uw-61" target="J7z8JENhS1iehbA8i5uw-58" edge="1">
          <mxGeometry width="160" relative="1" as="geometry">
            <mxPoint x="680" y="949.5" as="sourcePoint" />
            <mxPoint x="840" y="949.5" as="targetPoint" />
          </mxGeometry>
        </mxCell>
        <mxCell id="J7z8JENhS1iehbA8i5uw-67" value="" style="edgeStyle=none;html=1;endArrow=none;verticalAlign=bottom;entryX=0.5;entryY=1;entryDx=0;entryDy=0;exitX=0.767;exitY=0.3;exitDx=0;exitDy=0;exitPerimeter=0;" parent="1" source="J7z8JENhS1iehbA8i5uw-43" target="J7z8JENhS1iehbA8i5uw-46" edge="1">
          <mxGeometry width="160" relative="1" as="geometry">
            <mxPoint x="335" y="930" as="sourcePoint" />
            <mxPoint x="495" y="930" as="targetPoint" />
          </mxGeometry>
        </mxCell>
        <mxCell id="J7z8JENhS1iehbA8i5uw-68" value="&amp;lt;&amp;lt;include&amp;gt;&amp;gt;" style="edgeStyle=none;html=1;endArrow=open;verticalAlign=bottom;dashed=1;labelBackgroundColor=none;exitX=0.5;exitY=0;exitDx=0;exitDy=0;" parent="1" source="J7z8JENhS1iehbA8i5uw-45" target="J7z8JENhS1iehbA8i5uw-17" edge="1">
          <mxGeometry width="160" relative="1" as="geometry">
            <mxPoint x="350" y="630" as="sourcePoint" />
            <mxPoint x="510" y="630" as="targetPoint" />
          </mxGeometry>
        </mxCell>
        <mxCell id="J7z8JENhS1iehbA8i5uw-69" value="&amp;lt;&amp;lt;include&amp;gt;&amp;gt;" style="edgeStyle=none;html=1;endArrow=open;verticalAlign=bottom;dashed=1;labelBackgroundColor=none;exitX=0.5;exitY=0;exitDx=0;exitDy=0;entryX=0.664;entryY=0.9;entryDx=0;entryDy=0;entryPerimeter=0;" parent="1" source="J7z8JENhS1iehbA8i5uw-46" target="J7z8JENhS1iehbA8i5uw-17" edge="1">
          <mxGeometry width="160" relative="1" as="geometry">
            <mxPoint x="480" y="600" as="sourcePoint" />
            <mxPoint x="640" y="600" as="targetPoint" />
          </mxGeometry>
        </mxCell>
        <mxCell id="J7z8JENhS1iehbA8i5uw-70" value="&amp;lt;&amp;lt;include&amp;gt;&amp;gt;" style="edgeStyle=none;html=1;endArrow=open;verticalAlign=bottom;dashed=1;labelBackgroundColor=none;exitX=0.5;exitY=0;exitDx=0;exitDy=0;entryX=1;entryY=0.5;entryDx=0;entryDy=0;" parent="1" source="J7z8JENhS1iehbA8i5uw-48" target="J7z8JENhS1iehbA8i5uw-17" edge="1">
          <mxGeometry width="160" relative="1" as="geometry">
            <mxPoint x="530" y="610" as="sourcePoint" />
            <mxPoint x="690" y="610" as="targetPoint" />
          </mxGeometry>
        </mxCell>
        <mxCell id="J7z8JENhS1iehbA8i5uw-71" value="&amp;lt;&amp;lt;include&amp;gt;&amp;gt;" style="edgeStyle=none;html=1;endArrow=open;verticalAlign=bottom;dashed=1;labelBackgroundColor=none;entryX=1;entryY=1;entryDx=0;entryDy=0;exitX=0;exitY=0;exitDx=0;exitDy=0;" parent="1" source="J7z8JENhS1iehbA8i5uw-55" target="J7z8JENhS1iehbA8i5uw-17" edge="1">
          <mxGeometry width="160" relative="1" as="geometry">
            <mxPoint x="380" y="600" as="sourcePoint" />
            <mxPoint x="540" y="600" as="targetPoint" />
          </mxGeometry>
        </mxCell>
        <mxCell id="J7z8JENhS1iehbA8i5uw-72" value="&amp;lt;&amp;lt;include&amp;gt;&amp;gt;" style="edgeStyle=none;html=1;endArrow=open;verticalAlign=bottom;dashed=1;labelBackgroundColor=none;exitX=0;exitY=0.5;exitDx=0;exitDy=0;entryX=0.5;entryY=0;entryDx=0;entryDy=0;" parent="1" source="J7z8JENhS1iehbA8i5uw-40" target="J7z8JENhS1iehbA8i5uw-17" edge="1">
          <mxGeometry width="160" relative="1" as="geometry">
            <mxPoint x="470" y="394" as="sourcePoint" />
            <mxPoint x="630" y="394" as="targetPoint" />
          </mxGeometry>
        </mxCell>
        <mxCell id="J7z8JENhS1iehbA8i5uw-73" value="&amp;lt;&amp;lt;include&amp;gt;&amp;gt;" style="edgeStyle=none;html=1;endArrow=open;verticalAlign=bottom;dashed=1;labelBackgroundColor=none;exitX=0;exitY=1;exitDx=0;exitDy=0;entryX=0.693;entryY=0;entryDx=0;entryDy=0;entryPerimeter=0;" parent="1" source="J7z8JENhS1iehbA8i5uw-39" target="J7z8JENhS1iehbA8i5uw-17" edge="1">
          <mxGeometry width="160" relative="1" as="geometry">
            <mxPoint x="530" y="400" as="sourcePoint" />
            <mxPoint x="690" y="400" as="targetPoint" />
          </mxGeometry>
        </mxCell>
        <mxCell id="J7z8JENhS1iehbA8i5uw-74" value="&amp;lt;&amp;lt;include&amp;gt;&amp;gt;" style="edgeStyle=none;html=1;endArrow=open;verticalAlign=bottom;dashed=1;labelBackgroundColor=none;exitX=0.029;exitY=0.717;exitDx=0;exitDy=0;exitPerimeter=0;entryX=1;entryY=0;entryDx=0;entryDy=0;" parent="1" source="J7z8JENhS1iehbA8i5uw-61" target="J7z8JENhS1iehbA8i5uw-17" edge="1">
          <mxGeometry width="160" relative="1" as="geometry">
            <mxPoint x="500" y="520" as="sourcePoint" />
            <mxPoint x="660" y="520" as="targetPoint" />
          </mxGeometry>
        </mxCell>
        <mxCell id="J7z8JENhS1iehbA8i5uw-75" value="Validation des infos d&#39;internaute" style="ellipse;whiteSpace=wrap;html=1;" parent="1" vertex="1">
          <mxGeometry x="140" y="830" width="100" height="40" as="geometry" />
        </mxCell>
        <mxCell id="tqUa47hQ0e9u340nW3aU-1" value="&amp;lt;&amp;lt;include&amp;gt;&amp;gt;" style="edgeStyle=none;html=1;endArrow=open;verticalAlign=bottom;dashed=1;labelBackgroundColor=none;exitX=0.5;exitY=0;exitDx=0;exitDy=0;entryX=0.5;entryY=1;entryDx=0;entryDy=0;" parent="1" source="J7z8JENhS1iehbA8i5uw-9" target="J7z8JENhS1iehbA8i5uw-8" edge="1">
          <mxGeometry width="160" relative="1" as="geometry">
            <mxPoint x="190" y="360" as="sourcePoint" />
            <mxPoint x="350" y="360" as="targetPoint" />
          </mxGeometry>
        </mxCell>
        <mxCell id="tqUa47hQ0e9u340nW3aU-4" value="&amp;lt;&amp;lt;include&amp;gt;&amp;gt;" style="edgeStyle=none;html=1;endArrow=open;verticalAlign=bottom;dashed=1;labelBackgroundColor=none;exitX=0.5;exitY=0;exitDx=0;exitDy=0;entryX=0.5;entryY=1;entryDx=0;entryDy=0;" parent="1" source="J7z8JENhS1iehbA8i5uw-11" target="J7z8JENhS1iehbA8i5uw-10" edge="1">
          <mxGeometry width="160" relative="1" as="geometry">
            <mxPoint x="300" y="640" as="sourcePoint" />
            <mxPoint x="460" y="640" as="targetPoint" />
          </mxGeometry>
        </mxCell>
        <mxCell id="fRRK7_hMu2K77Pifci9d-1" value="&amp;lt;&amp;lt;include&amp;gt;&amp;gt;" style="edgeStyle=none;html=1;endArrow=open;verticalAlign=bottom;dashed=1;labelBackgroundColor=none;exitX=0.5;exitY=0;exitDx=0;exitDy=0;entryX=0.352;entryY=1.038;entryDx=0;entryDy=0;entryPerimeter=0;" parent="1" source="J7z8JENhS1iehbA8i5uw-10" target="J7z8JENhS1iehbA8i5uw-9" edge="1">
          <mxGeometry width="160" relative="1" as="geometry">
            <mxPoint x="340" y="380" as="sourcePoint" />
            <mxPoint x="360" y="310" as="targetPoint" />
          </mxGeometry>
        </mxCell>
        <mxCell id="lBp-afv2W1sVfh6nND37-2" value="" style="endArrow=none;html=1;exitX=0;exitY=0.5;exitDx=0;exitDy=0;entryX=1;entryY=1;entryDx=0;entryDy=0;" edge="1" parent="1" source="J7z8JENhS1iehbA8i5uw-34" target="J7z8JENhS1iehbA8i5uw-3">
          <mxGeometry width="50" height="50" relative="1" as="geometry">
            <mxPoint x="390" y="1120" as="sourcePoint" />
            <mxPoint x="440" y="1070" as="targetPoint" />
          </mxGeometry>
        </mxCell>
        <mxCell id="lBp-afv2W1sVfh6nND37-3" value="" style="endArrow=none;html=1;entryX=0;entryY=0.5;entryDx=0;entryDy=0;exitX=1;exitY=0.5;exitDx=0;exitDy=0;" edge="1" parent="1" source="J7z8JENhS1iehbA8i5uw-3" target="J7z8JENhS1iehbA8i5uw-75">
          <mxGeometry width="50" height="50" relative="1" as="geometry">
            <mxPoint x="120" y="898" as="sourcePoint" />
            <mxPoint x="440" y="1070" as="targetPoint" />
          </mxGeometry>
        </mxCell>
        <mxCell id="lBp-afv2W1sVfh6nND37-5" value="" style="edgeStyle=none;html=1;endArrow=block;endFill=0;endSize=12;verticalAlign=bottom;exitX=0.5;exitY=0;exitDx=0;exitDy=0;" edge="1" parent="1" source="J7z8JENhS1iehbA8i5uw-27">
          <mxGeometry width="160" relative="1" as="geometry">
            <mxPoint x="340" y="590" as="sourcePoint" />
            <mxPoint x="190" y="603" as="targetPoint" />
          </mxGeometry>
        </mxCell>
        <mxCell id="lBp-afv2W1sVfh6nND37-6" value="" style="edgeStyle=none;html=1;endArrow=block;endFill=0;endSize=12;verticalAlign=bottom;exitX=0.5;exitY=0;exitDx=0;exitDy=0;entryX=1;entryY=1;entryDx=0;entryDy=0;" edge="1" parent="1" source="J7z8JENhS1iehbA8i5uw-25" target="J7z8JENhS1iehbA8i5uw-11">
          <mxGeometry width="160" relative="1" as="geometry">
            <mxPoint x="340" y="590" as="sourcePoint" />
            <mxPoint x="500" y="590" as="targetPoint" />
          </mxGeometry>
        </mxCell>
        <mxCell id="lBp-afv2W1sVfh6nND37-7" value="&lt;span style=&quot;font-family: &amp;#34;nunito sans&amp;#34; , sans-serif ; background-color: rgb(255 , 255 , 255)&quot;&gt;&amp;nbsp;les imprimer ou les exporter sous format électroniques&lt;/span&gt;" style="ellipse;whiteSpace=wrap;html=1;" vertex="1" parent="1">
          <mxGeometry x="390" y="735" width="140" height="70" as="geometry" />
        </mxCell>
        <mxCell id="lBp-afv2W1sVfh6nND37-9" value="&amp;lt;&amp;lt;extend&amp;gt;&amp;gt;" style="edgeStyle=none;html=1;startArrow=open;endArrow=none;startSize=12;verticalAlign=bottom;dashed=1;labelBackgroundColor=none;exitX=1;exitY=0;exitDx=0;exitDy=0;entryX=0;entryY=1;entryDx=0;entryDy=0;" edge="1" parent="1" source="J7z8JENhS1iehbA8i5uw-45" target="lBp-afv2W1sVfh6nND37-7">
          <mxGeometry width="160" relative="1" as="geometry">
            <mxPoint x="340" y="800" as="sourcePoint" />
            <mxPoint x="500" y="800" as="targetPoint" />
          </mxGeometry>
        </mxCell>
      </root>
    </mxGraphModel>
  </diagram>
</mxfile>
